<svg width="7" height="11" viewBox="0 0 7 11" fill="none" xmlns="http://www.w3.org/2000/svg">
<path d="M1.99993 10.0001C2.10666 10.0004 1.9035 10.0412 1.99993 10.0001C2.09636 9.95892 1.93269 10.0747 1.99993 10.0001L5.99993 6.00008C6.10501 5.88506 5.99993 5.14897 5.99993 5.00008C5.99993 4.85119 6.10501 5.1151 5.99993 5.00008L1.99993 1.00008C1.87867 0.868811 2.18884 1.01575 1.99993 1.00008C1.81102 0.984409 1.14583 0.890973 0.99993 1.00008C0.854034 1.10919 1.01735 1.83011 0.99993 2.00008C0.982512 2.17005 0.878666 1.86881 0.99993 2.00008L3.99993 6.00008L0.99993 9.00008C0.912569 9.09443 1.01699 8.87824 0.99993 9.00008C0.98287 9.12192 0.941308 9.88918 0.99993 10.0001C1.05855 10.111 0.884116 9.9351 0.99993 10.0001C1.11574 10.0651 1.86345 10.0015 1.99993 10.0001Z" fill="#232945"/>
</svg>
