<svg width="18" height="16" viewBox="0 0 18 16" fill="none" xmlns="http://www.w3.org/2000/svg">
<path d="M16 7H3.99998L7.99998 3C8.16972 2.79581 8.02436 2.26441 7.99998 2C7.9756 1.7356 8.2042 1.16973 7.99998 1C7.79577 0.83028 7.26441 0.975626 6.99998 1C6.73556 1.02438 6.16972 0.795805 5.99998 1L0.999983 7C0.966344 7.04772 1.02626 7.94787 0.999983 8C0.999983 8.05 1.06998 7.95001 0.999983 8C0.954657 8.11465 1.00092 7.87673 0.999983 8C1.00092 8.12328 0.954657 7.88536 0.999983 8C0.999983 8.05 0.929983 7.95001 0.999983 8C1.02626 8.05214 0.966344 8.95228 0.999983 9L5.99998 15C6.09401 15.1129 6.8669 14.9378 6.99998 15C7.13307 15.0622 6.85307 15.0002 6.99998 15C7.23364 15.0005 7.82007 15.1491 7.99998 15C8.10124 14.9161 7.93863 14.1163 7.99998 14C8.06134 13.8837 7.98791 14.131 7.99998 14C8.01206 13.869 8.03903 14.1256 7.99998 14C7.96094 13.8744 8.08419 13.101 7.99998 13L3.99998 9H16C16.2652 9 16.8124 9.18752 17 9C17.1875 8.81248 17 8.2652 17 8C17 7.73481 17.1875 7.18752 17 7C16.8124 6.81248 16.2652 7 16 7Z" fill="#232945"/>
</svg>
