<svg width="600" height="489" viewBox="0 0 600 489" fill="none" xmlns="http://www.w3.org/2000/svg">
<path d="M286.617 462.844C369.784 465.934 417.861 467.317 444.367 466.99C463.028 466.759 463.309 456.256 445.122 452.067C409.789 443.929 370.566 452 291.257 452C190.599 452 109 456.761 109 462.635C109 468.405 174.147 481.528 275.521 463.626C279.145 462.986 282.939 462.707 286.617 462.844Z" fill="#4360C9"/>
<path d="M248.478 304.603C248.478 307.017 237.01 439.054 237.01 439.054L245.774 438.919L273.223 309.423L248.478 304.603Z" fill="#808080" stroke="#03072E" stroke-width="2" stroke-miterlimit="10" stroke-linecap="round" stroke-linejoin="round"/>
<path d="M401.485 304.603C401.485 307.017 412.953 439.054 412.953 439.054L404.189 438.919L376.74 309.423L401.485 304.603Z" fill="#808080" stroke="#03072E" stroke-width="2" stroke-miterlimit="10" stroke-linecap="round" stroke-linejoin="round"/>
<path d="M214.784 280.122C213.457 270.068 211.277 241.805 216.153 234.604C220.598 228.045 267.848 213.441 267.848 213.441C267.848 213.441 344.449 211.06 350.238 213.779C356.027 216.497 418.117 217.231 422.207 227.437C426.297 237.643 426.999 267.316 417.812 300.813C412.978 318.448 372.16 322.601 317.549 322.947C269.108 323.251 239.892 321.672 229.675 311.129C219.458 300.585 216.246 291.189 214.784 280.122Z" fill="#808080" stroke="#03072E" stroke-width="2" stroke-miterlimit="10" stroke-linecap="round" stroke-linejoin="round"/>
<path d="M356.685 172.996C356.685 172.996 384.76 187.913 393.49 193.721C404.645 201.149 408.761 205.058 419.916 217.771C430.936 230.324 442.286 247.022 444.576 251.969C446.858 256.916 448.515 262.453 450.881 271.207C453.239 279.961 453.585 292.405 453.18 295.055C452.774 297.706 449.765 306.528 447.458 307.65C445.151 308.773 445.379 307.709 445.286 303.733C445.193 299.757 446.486 294.236 446.529 291.459C446.571 288.682 442.396 279.261 442.396 279.261C442.396 279.261 440.697 281.185 441.365 285.617C442.033 290.049 443.672 293.857 441.517 294.794C439.362 295.722 436.396 284.613 434.68 278.56C432.965 272.507 433.827 262.681 434.401 260.014C434.976 257.346 419.756 239.745 413.257 232.831C406.758 225.926 379.647 208.722 374.297 204.29C368.948 199.858 356.677 195.131 352.832 191.745C348.986 188.352 356.685 172.996 356.685 172.996Z" fill="white" stroke="#03072E" stroke-width="2" stroke-miterlimit="10" stroke-linecap="round" stroke-linejoin="round"/>
<path d="M282.427 441.249C275.506 433.601 277.204 409.719 298.983 403.472C309.994 400.315 320 391.561 325.882 384.799C327.775 382.621 331.359 384.251 330.97 387.112C330.497 390.666 329.516 394.524 327.589 397.538C322.722 405.152 319.814 416.962 319.814 416.962C319.814 416.962 326.085 395.951 340.705 390.666C355.334 385.382 392.147 382.258 400.784 369.064C409.421 355.87 412.641 338.834 428.182 332.098C437.724 327.961 444.975 322.998 449.834 319.064C452.192 317.156 455.538 319.629 454.44 322.457C452.327 327.885 448.676 334.309 442.482 338.691C429.822 347.647 429.568 356.933 427.312 363.594C425.064 370.246 421.058 376.248 421.058 376.248C421.058 376.248 439.701 364.455 445.22 351.691C450.747 338.927 460.871 327.835 474.57 318.912C481.661 314.294 487.306 306.722 491.101 300.5C492.765 297.774 496.957 299.251 496.56 302.417C495.901 307.71 494.27 314.007 490.577 319.866C481.923 333.575 470.041 351.851 470.041 351.851C470.041 351.851 484.078 349.133 490.053 338.969C491.067 337.239 492.216 335.618 493.425 334.115C495.512 331.515 499.628 333.879 498.495 337.002C497.244 340.43 496.146 344.423 495.478 348.931C492.943 365.915 477.055 379.43 468.528 388.497C460.001 397.563 466.736 408.926 458.995 423.184C452.15 435.779 438.526 445.276 425.512 448.29C393.465 455.701 396.567 435.002 331.942 444.525C296.388 449.75 287.743 447.125 282.427 441.249Z" fill="#FC6441"/>
<path d="M352.154 433.339C352.154 433.339 381.057 414.151 384.598 406.199C388.139 398.247 403.52 378.502 407.551 375.944C411.582 373.386 416.458 370.01 416.458 370.01C416.458 370.01 407.424 379.793 404.897 395.208C402.37 410.623 399.345 414.995 399.345 414.995C399.345 414.995 404.838 413.172 410.796 406.604C416.754 400.037 425.602 393.781 425.602 393.781C425.602 393.781 417.633 412.176 415.503 419.706C413.382 427.236 405.692 433.449 405.692 433.449C405.692 433.449 410.838 434.048 415.427 431.187C417.05 430.174 420.845 426.215 420.845 426.215C420.845 426.215 416.932 436.733 408.861 439.021C400.79 441.317 390.133 437.594 380.491 434.859C370.84 432.124 352.154 433.339 352.154 433.339Z" fill="white"/>
<path d="M344.365 368.701L337.57 400.4L354.743 403.067L362.425 378.519L344.365 368.701Z" fill="white" stroke="#03072E" stroke-width="2" stroke-miterlimit="10" stroke-linecap="round" stroke-linejoin="round"/>
<path d="M207.068 404.781L195.955 433.044C195.955 433.044 200.257 444.575 206.713 445.647C213.17 446.719 217.235 440.017 217.235 440.017L230.157 407.66L207.068 404.781Z" fill="white" stroke="#03072E" stroke-width="2" stroke-miterlimit="10" stroke-linecap="round" stroke-linejoin="round"/>
<path d="M151.207 456.503C151.207 456.503 152.263 448.408 153.286 445.31C154.309 442.211 161.94 441.047 173.163 438.387C184.386 435.728 186.347 431.533 186.347 431.533C186.347 431.533 189.811 424.585 196.395 427.042C203.282 429.608 199.556 437.155 202.953 437.197C206.215 437.239 213.356 436.91 218.57 436.64C221.824 436.471 224.478 439.223 224.19 442.465L222.948 456.36C222.948 456.36 209.883 458.715 188.113 458.293C162.455 457.795 151.207 456.503 151.207 456.503Z" fill="#FFEC00" stroke="#03072E" stroke-width="2" stroke-linecap="round" stroke-linejoin="round"/>
<path d="M149.068 456.934C149.245 456.005 150.2 455.482 151.274 455.701C156.361 456.757 223.361 454.984 223.361 454.984L222.956 461.349H148.375L149.068 456.934Z" fill="#FFEC00" stroke="#03072E" stroke-width="2" stroke-linecap="round" stroke-linejoin="round"/>
<path d="M182.898 435.846C182.898 435.846 187.285 437.661 191.764 443.604" stroke="#03072E" stroke-width="2" stroke-miterlimit="10" stroke-linecap="round" stroke-linejoin="round"/>
<path d="M176.871 437.915C176.871 437.915 181.257 439.73 185.736 445.672" stroke="#03072E" stroke-width="2" stroke-miterlimit="10" stroke-linecap="round" stroke-linejoin="round"/>
<path d="M170.018 439.755C170.018 439.755 174.404 441.57 178.883 447.513" stroke="#03072E" stroke-width="2" stroke-miterlimit="10" stroke-linecap="round" stroke-linejoin="round"/>
<path d="M89.2509 421.327C80.7154 406.098 81.4506 391.882 90.5524 371.968C102.798 345.182 125.227 346.854 135.199 339.923C145.172 332.993 147.335 320.009 156.006 312.648C157.493 311.382 158.896 310.276 160.189 309.297C162.158 307.819 164.694 310.158 163.426 312.268C161.474 315.501 159.699 319.266 159.04 323.04C157.307 333.001 152.541 342.954 152.541 342.954C152.541 342.954 165.547 338.623 168.581 330.831C171.615 323.04 171.091 310.495 182.449 305.287C190.951 301.387 197.196 294.026 201.084 288.201C202.368 286.284 205.36 287.348 205.166 289.644C204.625 295.883 203.737 303.826 202.394 309.617C199.318 322.888 192.861 320.44 190.689 329.101C188.526 337.762 185.669 359.17 179.043 367.654C170.466 378.637 153.842 382.79 153.842 382.79C153.842 382.79 168.049 385.441 182.559 370.508C189.937 362.91 197.433 360.31 201.971 359.424C203.805 359.069 205.233 361.011 204.354 362.657C198.743 373.251 182.12 403.852 170.745 416.996C156.876 433.019 142.569 438.649 120.892 438.21C107.438 437.94 95.3188 432.149 89.2509 421.327Z" fill="#FC6441"/>
<path d="M323.01 291.13L267.343 313.627L229.237 416.954C229.237 416.954 217.067 421.69 202.219 413.248C182.815 402.215 167.865 404.308 167.865 404.308C167.865 404.308 217.135 288.707 227.885 276.796C239.911 263.466 308.381 244.92 308.381 244.92L323.01 291.13Z" fill="white" stroke="#03072E" stroke-width="2" stroke-miterlimit="10" stroke-linecap="round" stroke-linejoin="round"/>
<path d="M359.051 243.696C360.479 243.662 410.408 260.748 414.482 271.596C418.547 282.444 407.281 308.714 395.45 332.309C383.618 355.912 368.305 393.393 368.305 393.393C368.305 393.393 353.862 387.07 342.132 374.501C330.402 361.931 320.016 363.864 320.016 363.864C320.016 363.864 336.377 332.284 345.081 317.798C353.794 303.312 360.826 291.738 360.826 291.738L331.906 284.318L359.051 243.696Z" fill="white" stroke="#03072E" stroke-width="2" stroke-miterlimit="10" stroke-linecap="round" stroke-linejoin="round"/>
<path d="M333.791 405.744C333.791 405.744 337.044 392.211 346.425 393.638C355.806 395.065 357.031 400.256 356.862 404.655C356.693 409.053 356.414 432.402 356.887 440.633C357.361 448.864 353.203 459.399 343.036 459.636C332.87 459.872 328.881 453.929 328.813 439.646C328.754 425.362 333.791 405.744 333.791 405.744Z" fill="#FFEC00" stroke="#03072E" stroke-width="2" stroke-linecap="round" stroke-linejoin="round"/>
<path d="M329.186 444.297C329.186 444.297 329.566 453.515 341.862 454.976C354.167 456.436 356.449 445.242 356.449 445.242" stroke="#03072E" stroke-width="2" stroke-miterlimit="10" stroke-linecap="round" stroke-linejoin="round"/>
<path d="M339.725 410.335C339.725 410.335 345.987 406.131 351.767 411.146" stroke="#03072E" stroke-width="2" stroke-miterlimit="10" stroke-linecap="round" stroke-linejoin="round"/>
<path d="M339.039 416.338C339.039 416.338 345.301 412.134 351.082 417.148" stroke="#03072E" stroke-width="2" stroke-miterlimit="10" stroke-linecap="round" stroke-linejoin="round"/>
<path d="M338.508 422.914C338.508 422.914 344.77 418.71 350.551 423.724" stroke="#03072E" stroke-width="2" stroke-miterlimit="10" stroke-linecap="round" stroke-linejoin="round"/>
<path d="M368.989 216.142C368.989 216.142 376.452 207.43 380.863 203.978C388.182 198.246 397.208 190.361 397.208 190.361C397.208 190.361 366.158 166.353 355.011 164.242C347.625 162.841 325.373 163.263 318.224 163.103C311.074 162.951 301.17 159.819 288.189 162.74C274.54 165.813 261.289 186.318 261.289 186.318L289.423 201.082L277.312 254.425C277.312 254.425 288.873 276.804 339.005 256.485C351.428 251.454 356.803 251.091 362.685 250.449C368.567 249.816 373.494 249.656 373.494 249.656L368.989 216.142Z" fill="#FFEC00" stroke="#03072E" stroke-width="2" stroke-linecap="round" stroke-linejoin="round"/>
<path d="M332.432 163.575C332.432 163.575 329.829 171.257 321.014 168.995C312.614 166.842 315.132 157.59 315.361 153.64C315.589 149.689 314.549 149.495 314.161 148.237C313.78 146.979 309.369 141.559 311.972 138.85C314.575 136.14 317.169 138.174 317.169 138.174C317.169 138.174 316.941 122.363 327.006 121.012C337.063 119.653 350.179 119.206 350.289 127.901C350.399 136.596 350.627 148.676 346.444 153.648C342.26 158.62 332.432 163.575 332.432 163.575Z" fill="white"/>
<path d="M314.16 148.237C314.16 148.237 290.218 146.118 304.949 117.88C311.093 106.096 323.245 109.109 329.161 102.964C335.077 96.8183 337.342 88.022 344.229 85.0083C351.108 81.9946 360.43 84.0291 360.43 84.0291C360.43 84.0291 356.323 86.0804 353.914 88.8493C351.506 91.6182 350.415 94.8767 350.415 94.8767C350.415 94.8767 360.193 84.8733 375.76 85.3544C391.327 85.8356 398.451 82.8219 402.195 79.9264C405.939 77.0309 408.474 71.7295 408.474 71.7295C408.474 71.7295 410.764 81.2518 407.384 87.161C404.003 93.0702 402.558 93.0702 402.558 93.0702C402.558 93.0702 404.815 93.1039 406.902 91.5C407.942 90.7065 409.826 87.7266 409.826 87.7266C409.826 87.7266 412.945 92.4877 410.376 99.6969C408.035 106.256 404.612 109.228 401.468 112.241C398.333 115.255 397.285 121.527 397.285 121.527C397.285 121.527 398.941 116.344 402.077 113.811C405.212 111.279 407.992 110.317 407.992 110.317C407.992 110.317 403.649 115.5 401.113 125.149C398.578 134.798 394.234 144.075 386.146 146.852C378.059 149.63 367.554 147.697 363.092 149.866C358.63 152.036 355.486 158.181 353.314 160.359C351.142 162.537 346.933 163.592 346.933 163.592C346.933 163.592 332.246 163.685 332.465 163.398C333.133 162.546 331.891 160.41 331.891 160.41C331.891 160.41 339.623 158.654 343.274 151.917C347.441 144.227 348.142 134.755 347.246 129.927C346.046 123.435 335.432 121.916 329.136 123.14C320.448 124.836 318.758 139.348 318.758 139.348C318.758 139.348 316.991 136.115 314.794 136.613C306.994 138.394 314.16 148.237 314.16 148.237Z" fill="#03072E"/>
<path d="M318.572 140.698C318.572 140.698 317.997 137.178 315.04 136.874C312.09 136.57 310.172 140.715 311.211 143.661C311.955 145.772 313.873 147.511 314.913 148.33C315.335 148.667 315.564 149.191 315.513 149.731L314.473 160.958C314.135 164.58 316.451 167.931 319.967 168.877C320.862 169.113 321.843 169.307 322.916 169.425C323.685 169.51 324.462 169.535 325.223 169.51C328.713 169.425 331.637 166.834 332.28 163.398C332.466 162.385 333.539 160.815 332.516 160.942C325.003 161.862 322.789 156.856 322.865 156.645" stroke="#03072E" stroke-width="2" stroke-miterlimit="10" stroke-linecap="round" stroke-linejoin="round"/>
<path d="M345.531 137.178C345.531 137.178 342.447 135.464 340.224 136.359C337.63 137.406 337.165 140.909 337.03 142.572C336.886 144.235 336.886 147.561 336.886 147.561C336.886 147.561 334.173 148.237 332.889 147.047" stroke="#03072E" stroke-width="2" stroke-miterlimit="10" stroke-linecap="round" stroke-linejoin="round"/>
<path d="M328.037 133.126C328.037 133.126 332.449 132.62 334.637 134.612" stroke="#03072E" stroke-width="2" stroke-miterlimit="10" stroke-linecap="round" stroke-linejoin="round"/>
<path d="M328.705 137.144C328.705 137.144 329.643 139.288 332.609 138.74" stroke="#03072E" stroke-width="2" stroke-miterlimit="10" stroke-linecap="round" stroke-linejoin="round"/>
<path d="M340.139 140.521C340.139 140.521 341.305 142.547 344.195 141.686" stroke="#03072E" stroke-width="2" stroke-miterlimit="10" stroke-linecap="round" stroke-linejoin="round"/>
<path d="M328.484 150.229L336.175 152.635C336.175 152.635 334.586 155.953 331.121 154.906C327.707 153.876 328.484 150.229 328.484 150.229Z" stroke="#03072E" stroke-width="2" stroke-miterlimit="10" stroke-linecap="round" stroke-linejoin="round"/>
<path d="M183.381 137.879C183.381 137.879 192.635 155.48 217.912 164.369" stroke="#03072E" stroke-width="2" stroke-miterlimit="10" stroke-linecap="round" stroke-linejoin="round"/>
<path d="M184.977 150.356C184.977 150.356 198.803 164.665 225.55 166.117" stroke="#03072E" stroke-width="2" stroke-miterlimit="10" stroke-linecap="round" stroke-linejoin="round"/>
<path d="M187.191 158.485C187.191 158.485 203.24 170.236 229.861 167.138" stroke="#03072E" stroke-width="2" stroke-miterlimit="10" stroke-linecap="round" stroke-linejoin="round"/>
<path d="M190.166 165.314C190.166 165.314 207.144 175.689 233.41 170.379" stroke="#03072E" stroke-width="2" stroke-miterlimit="10" stroke-linecap="round" stroke-linejoin="round"/>
<path d="M207.954 91.5762C207.954 91.5762 200.095 109.988 212.619 136.495C222.084 156.518 235.961 165.213 235.961 165.213" stroke="#03072E" stroke-width="2" stroke-miterlimit="10" stroke-linecap="round" stroke-linejoin="round"/>
<path d="M200.088 96.1938C200.088 96.1938 194.333 115.365 209.756 140.31C221.402 159.152 236.174 166.243 236.174 166.243" stroke="#03072E" stroke-width="2" stroke-miterlimit="10" stroke-linecap="round" stroke-linejoin="round"/>
<path d="M193.48 102.154C193.48 102.154 189.905 121.848 208.007 144.919C221.681 162.343 237.147 167.746 237.147 167.746" stroke="#03072E" stroke-width="2" stroke-miterlimit="10" stroke-linecap="round" stroke-linejoin="round"/>
<path d="M186.633 113.508C186.633 113.508 187.427 133.506 210.135 152.086C227.282 166.125 243.551 168.033 243.551 168.033" stroke="#03072E" stroke-width="2" stroke-miterlimit="10" stroke-linecap="round" stroke-linejoin="round"/>
<path d="M183.836 125.824C183.836 125.824 188.788 145.215 214.877 158.663C234.576 168.818 250.887 167.298 250.887 167.298" stroke="#03072E" stroke-width="2" stroke-miterlimit="10" stroke-linecap="round" stroke-linejoin="round"/>
<path d="M256.811 215.23C256.811 215.23 238.768 206.831 228.678 182.038" stroke="#03072E" stroke-width="2" stroke-miterlimit="10" stroke-linecap="round" stroke-linejoin="round"/>
<path d="M244 210.807C244 210.807 228.239 198.659 223.836 172.262" stroke="#03072E" stroke-width="2" stroke-miterlimit="10" stroke-linecap="round" stroke-linejoin="round"/>
<path d="M235.676 209.507C235.676 209.507 222.205 194.869 222.357 168.1" stroke="#03072E" stroke-width="2" stroke-miterlimit="10" stroke-linecap="round" stroke-linejoin="round"/>
<path d="M227.994 206.24C227.994 206.24 216.357 191.61 218.74 164.951" stroke="#03072E" stroke-width="2" stroke-miterlimit="10" stroke-linecap="round" stroke-linejoin="round"/>
<path d="M301.534 186.309C301.534 186.309 283.838 195.696 256.33 185.465C235.557 177.741 225.703 164.665 225.703 164.665" stroke="#03072E" stroke-width="2" stroke-miterlimit="10" stroke-linecap="round" stroke-linejoin="round"/>
<path d="M298.331 194.894C298.331 194.894 278.961 201.884 252.772 188.647C232.996 178.652 224.672 164.555 224.672 164.555" stroke="#03072E" stroke-width="2" stroke-miterlimit="10" stroke-linecap="round" stroke-linejoin="round"/>
<path d="M292.204 201.622C292.204 201.622 272.859 206.856 248.318 190.783C229.776 178.644 223.074 163.711 223.074 163.711" stroke="#03072E" stroke-width="2" stroke-miterlimit="10" stroke-linecap="round" stroke-linejoin="round"/>
<path d="M281.464 209.397C281.464 209.397 261.443 210.3 240.992 189.281C225.543 173.402 222.256 157.371 222.256 157.371" stroke="#03072E" stroke-width="2" stroke-miterlimit="10" stroke-linecap="round" stroke-linejoin="round"/>
<path d="M269.412 213.221C269.412 213.221 249.645 209.929 234.028 185.11C222.23 166.361 222.365 150.001 222.365 150.001" stroke="#03072E" stroke-width="2" stroke-miterlimit="10" stroke-linecap="round" stroke-linejoin="round"/>
<path d="M220.37 88.5454C220.37 88.5454 212.883 95.991 213.559 115.339C213.981 127.462 220.582 151.065 234.416 165.728C248.25 180.4 286.356 187.415 303.808 179.547" stroke="#03072E" stroke-width="2" stroke-miterlimit="10" stroke-linecap="round" stroke-linejoin="round"/>
<path d="M228.643 87.9041C228.643 87.9041 220.462 95.0035 219.795 115.357C219.397 127.479 221.671 146.025 237.356 161.828C251.562 176.137 286.397 180.273 303.857 172.406" stroke="#03072E" stroke-width="2" stroke-miterlimit="10" stroke-linecap="round" stroke-linejoin="round"/>
<path d="M268.824 202.841C285.244 190.429 283.36 160.308 264.614 135.563C245.869 110.818 217.361 100.82 200.941 113.232C184.52 125.644 186.405 155.765 205.15 180.51C223.896 205.255 252.403 215.253 268.824 202.841Z" stroke="#03072E" stroke-width="2" stroke-miterlimit="10" stroke-linecap="round" stroke-linejoin="round"/>
<path d="M286.366 206.949C286.366 206.949 301.248 198.955 303.64 180.18C305.727 163.82 303.048 137.938 276.241 110.57C252.671 86.5027 219.957 80.2305 198.813 96.886C181.835 110.266 180.347 136.148 184.818 151.918C189.288 167.687 196.708 179.598 208.05 191.18C246.46 230.451 286.366 206.949 286.366 206.949Z" stroke="#03072E" stroke-width="2" stroke-miterlimit="10" stroke-linecap="round" stroke-linejoin="round"/>
<path d="M247.27 173.14L314.608 221.182L299.134 242.067L235.354 183.583L247.27 173.14Z" fill="white" stroke="#03072E" stroke-width="2" stroke-miterlimit="10" stroke-linecap="round" stroke-linejoin="round"/>
<path d="M287.505 302.678C287.505 302.678 277.11 287.196 276.121 284.841C275.141 282.486 279.459 265.83 296.327 241.721C313.196 217.611 327.326 206.248 333.8 204.872C340.273 203.496 350.676 203.108 358.324 204.484C365.973 205.86 379.123 213.5 379.123 213.5L287.505 302.678Z" fill="white" stroke="#03072E" stroke-width="2" stroke-miterlimit="10" stroke-linecap="round" stroke-linejoin="round"/>
<path d="M354.463 211.052C350.127 211.254 346.054 213.128 343.045 216.26C340.848 218.548 337.975 221.882 334.374 226.72C324.554 239.914 289.33 290.666 287.632 296.414C285.933 302.163 287.632 305.548 295.085 303.86C302.539 302.172 330.647 293.375 335.389 289.99C340.13 286.605 381.455 219.282 381.117 215.56C380.779 211.837 376.038 211.837 366.556 211.161C362.018 210.832 357.716 210.9 354.463 211.052Z" fill="white" stroke="#03072E" stroke-width="2" stroke-miterlimit="10" stroke-linecap="round" stroke-linejoin="round"/>
<path d="M248.8 187.972C248.8 187.972 248.8 184.629 247.735 184.173C246.67 183.718 241.811 182.806 240.594 183.414C239.377 184.021 238.312 189.331 237.703 190.699C237.095 192.066 242.199 200.01 242.199 203.049C242.199 206.088 235.278 207.895 232.844 209.98C230.478 212.006 227.985 214.378 226.463 218.784C224.942 223.183 223.573 229.413 224.942 230.772C226.311 232.139 241.506 237.449 246.67 231.076C251.834 224.702 252.138 217.873 256.093 215.745C260.039 213.618 262.33 210.664 266.276 206.265C270.223 201.867 275.04 197.638 275.192 195.815C275.344 193.991 273.832 192.455 273.832 192.455C273.832 192.455 275.496 190.344 274.787 189.027C273.654 186.909 270.426 186.993 270.426 186.993C270.426 186.993 272.361 184.663 270.992 183.144C269.623 181.624 266.733 182.493 266.733 182.493C266.733 182.493 266.175 179.404 264.147 179.454C261.704 179.514 254.115 183.853 252.298 185.524C250.473 187.212 248.8 187.972 248.8 187.972Z" fill="white" stroke="#03072E" stroke-width="2" stroke-miterlimit="10" stroke-linecap="round" stroke-linejoin="round"/>
<path d="M266.731 182.502C266.731 182.502 263.292 184.503 260.351 186.427C257.41 188.352 253.1 192.083 253.1 192.083" stroke="#03072E" stroke-width="2" stroke-miterlimit="10" stroke-linecap="round" stroke-linejoin="round"/>
<path d="M270.468 187.027C270.468 187.027 267.028 189.028 264.087 190.952C261.146 192.877 256.836 196.608 256.836 196.608" stroke="#03072E" stroke-width="2" stroke-miterlimit="10" stroke-linecap="round" stroke-linejoin="round"/>
<path d="M274.094 191.669C274.094 191.669 270.655 193.67 267.714 195.595C264.773 197.52 260.463 201.251 260.463 201.251" stroke="#03072E" stroke-width="2" stroke-miterlimit="10" stroke-linecap="round" stroke-linejoin="round"/>
<path d="M248.798 187.972C248.798 187.972 245.967 190.505 244.606 190.505C243.246 190.505 242.113 190.167 242.113 190.167" stroke="#03072E" stroke-width="2" stroke-miterlimit="10" stroke-linecap="round" stroke-linejoin="round"/>
<path d="M235.6 88.4612C235.6 88.4612 227.715 97.612 225.796 112.301C223.016 133.582 230.056 145.932 230.056 145.932" stroke="#03072E" stroke-width="2" stroke-miterlimit="10" stroke-linecap="round" stroke-linejoin="round"/>
<path d="M240.922 90.5884C240.922 90.5884 233.037 99.7392 231.119 114.428C228.338 135.709 235.378 148.06 235.378 148.06" stroke="#03072E" stroke-width="2" stroke-miterlimit="10" stroke-linecap="round" stroke-linejoin="round"/>
<path d="M248.029 92.564C248.029 92.564 239.46 101.082 236.417 115.576C231.997 136.579 238.065 149.436 238.065 149.436" stroke="#03072E" stroke-width="2" stroke-miterlimit="10" stroke-linecap="round" stroke-linejoin="round"/>
<path d="M255.088 95.6282C255.088 95.6282 246.011 103.597 242.073 117.881C236.368 138.571 241.625 151.774 241.625 151.774" stroke="#03072E" stroke-width="2" stroke-miterlimit="10" stroke-linecap="round" stroke-linejoin="round"/>
<path d="M261.805 99.0977C261.805 99.0977 252.584 106.94 247.1 119.535C240.711 134.224 239.215 152.103 239.215 152.103" stroke="#03072E" stroke-width="2" stroke-miterlimit="10" stroke-linecap="round" stroke-linejoin="round"/>
<path d="M267.771 103.361C267.771 103.361 258.745 110.232 252.001 122.203C244.133 136.157 240.82 153.792 240.82 153.792" stroke="#03072E" stroke-width="2" stroke-miterlimit="10" stroke-linecap="round" stroke-linejoin="round"/>
<path d="M273.316 107.826C273.316 107.826 264.578 115.703 259.465 122.726C251.394 133.81 243.906 154.231 243.906 154.231" stroke="#03072E" stroke-width="2" stroke-miterlimit="10" stroke-linecap="round" stroke-linejoin="round"/>
<path d="M278.37 112.841C278.37 112.841 268.406 122.295 262.871 128.897C251.809 142.074 246.096 157.295 246.096 157.295" stroke="#03072E" stroke-width="2" stroke-miterlimit="10" stroke-linecap="round" stroke-linejoin="round"/>
<path d="M283.33 118.471C283.33 118.471 277.152 124.853 268.836 132.949C260.529 141.036 243.475 157.641 243.475 157.641" stroke="#03072E" stroke-width="2" stroke-miterlimit="10" stroke-linecap="round" stroke-linejoin="round"/>
<path d="M287.801 124.431C287.801 124.431 280.769 131.666 270.755 140.183C261.915 147.697 244.48 159.65 244.48 159.65" stroke="#03072E" stroke-width="2" stroke-miterlimit="10" stroke-linecap="round" stroke-linejoin="round"/>
<path d="M291.833 131.725C291.833 131.725 284.194 138.318 273.461 145.916C263.996 152.618 245.184 160.824 245.184 160.824" stroke="#03072E" stroke-width="2" stroke-miterlimit="10" stroke-linecap="round" stroke-linejoin="round"/>
<path d="M296.86 140.192C296.86 140.192 286.043 148.845 273.104 153.209C264.434 156.138 247.734 160.916 247.734 160.916" stroke="#03072E" stroke-width="2" stroke-miterlimit="10" stroke-linecap="round" stroke-linejoin="round"/>
<path d="M302.936 165.939C302.936 165.939 283.33 175.09 250.092 166.792" stroke="#03072E" stroke-width="2" stroke-miterlimit="10" stroke-linecap="round" stroke-linejoin="round"/>
<path d="M302.236 158.029C302.236 158.029 283.449 168.759 249.637 163.221" stroke="#03072E" stroke-width="2" stroke-miterlimit="10" stroke-linecap="round" stroke-linejoin="round"/>
<path d="M299.769 148.946C299.769 148.946 282.867 162.444 248.598 162.174" stroke="#03072E" stroke-width="2" stroke-miterlimit="10" stroke-linecap="round" stroke-linejoin="round"/>
<path d="M221.764 143.062C221.764 143.062 197.721 168.125 193.537 175.647C189.354 183.169 188.103 192.151 189.565 194.236C191.027 196.321 207.549 207.607 219.262 203.218C230.975 198.828 252.72 171.679 252.72 171.679C252.72 171.679 252.509 158.519 243.517 150.795C234.516 143.062 221.764 143.062 221.764 143.062Z" fill="white" stroke="#03072E" stroke-width="2" stroke-miterlimit="10" stroke-linecap="round" stroke-linejoin="round"/>
<path d="M360.826 291.729C360.826 291.729 364.384 285.027 371.745 281.354" stroke="#03072E" stroke-width="2" stroke-miterlimit="10" stroke-linecap="round" stroke-linejoin="round"/>
<path d="M104.36 425.294C109.431 428.637 120.375 432.149 129.95 431.642C139.525 431.136 155.168 420.685 155.168 420.685C155.168 420.685 146.303 418.558 141.663 420.415C137.024 422.28 129.012 420.499 129.012 420.499C129.012 420.499 135.933 413.704 145.01 411.053C154.086 408.402 162.351 393.899 162.351 393.899C162.351 393.899 151.289 402.839 144.283 403.489C137.277 404.139 126.02 398.669 119.124 403.878C105.366 414.278 91.7344 409.66 91.7344 409.66C91.7344 409.66 95.9007 419.723 104.36 425.294Z" fill="white"/>
<path d="M471 172L463.5 162L455 172L463.5 181L471 172Z" fill="#FFEC00"/>
<path d="M494.5 164.5L491.5 160.5L488 165L491.5 168L494.5 164.5Z" fill="#FC6441"/>
<path d="M450.467 173.302C450.095 173.301 449.736 173.162 449.46 172.912C449.184 172.661 449.012 172.317 448.976 171.946C448.94 171.576 449.043 171.205 449.266 170.906C449.488 170.607 449.814 170.402 450.179 170.33C457.386 168.912 460.13 165.426 461.472 155.984C461.498 155.787 461.562 155.598 461.662 155.426C461.762 155.255 461.894 155.104 462.052 154.984C462.21 154.864 462.39 154.777 462.582 154.727C462.774 154.677 462.974 154.666 463.171 154.694C463.367 154.722 463.556 154.788 463.726 154.89C463.897 154.991 464.046 155.125 464.164 155.284C464.282 155.444 464.368 155.625 464.415 155.817C464.463 156.01 464.472 156.21 464.442 156.406C462.932 167.036 459.223 171.607 450.759 173.273C450.663 173.292 450.565 173.302 450.467 173.302V173.302Z" fill="#03072E"/>
<path d="M475.447 173.302C475.349 173.302 475.251 173.292 475.155 173.273C466.692 171.607 462.983 167.036 461.472 156.406C461.442 156.21 461.451 156.01 461.499 155.818C461.547 155.625 461.633 155.444 461.751 155.285C461.869 155.125 462.018 154.991 462.188 154.89C462.359 154.788 462.548 154.722 462.744 154.694C462.941 154.666 463.14 154.677 463.332 154.727C463.524 154.777 463.705 154.865 463.863 154.985C464.021 155.105 464.153 155.255 464.253 155.426C464.352 155.598 464.417 155.788 464.442 155.984C465.784 165.426 468.528 168.911 475.735 170.33C476.101 170.402 476.426 170.607 476.649 170.906C476.871 171.205 476.974 171.576 476.938 171.947C476.902 172.317 476.73 172.661 476.454 172.912C476.179 173.162 475.82 173.301 475.447 173.302H475.447ZM462.955 188.909C462.594 188.909 462.246 188.778 461.973 188.541C461.701 188.305 461.523 187.977 461.472 187.62C460.131 178.179 457.386 174.692 450.179 173.273C449.984 173.237 449.799 173.162 449.633 173.053C449.468 172.944 449.326 172.804 449.215 172.64C449.104 172.476 449.026 172.292 448.987 172.098C448.948 171.904 448.947 171.704 448.985 171.509C449.024 171.315 449.1 171.13 449.21 170.966C449.32 170.801 449.462 170.66 449.626 170.55C449.791 170.441 449.976 170.365 450.171 170.327C450.365 170.289 450.565 170.29 450.759 170.33C459.223 171.997 462.932 176.568 464.442 187.198C464.47 187.393 464.459 187.592 464.41 187.783C464.361 187.973 464.275 188.153 464.156 188.31C464.038 188.468 463.89 188.6 463.72 188.701C463.551 188.801 463.363 188.867 463.168 188.894C463.098 188.904 463.026 188.909 462.955 188.909V188.909Z" fill="#03072E"/>
<path d="M462.961 188.909C462.89 188.909 462.818 188.904 462.748 188.894C462.553 188.867 462.365 188.801 462.196 188.701C462.026 188.6 461.878 188.468 461.76 188.31C461.641 188.153 461.555 187.973 461.506 187.783C461.457 187.592 461.446 187.393 461.474 187.198C462.984 176.568 466.693 171.997 475.157 170.33C475.35 170.29 475.55 170.289 475.745 170.327C475.939 170.365 476.124 170.441 476.289 170.55C476.454 170.66 476.595 170.801 476.705 170.966C476.815 171.13 476.892 171.315 476.93 171.509C476.968 171.704 476.968 171.903 476.928 172.098C476.889 172.292 476.812 172.476 476.701 172.64C476.59 172.804 476.447 172.944 476.282 173.053C476.116 173.162 475.931 173.237 475.737 173.273C468.529 174.692 465.785 178.179 464.444 187.62C464.393 187.977 464.215 188.304 463.943 188.541C463.67 188.778 463.322 188.909 462.961 188.909Z" fill="#03072E"/>
<path d="M484.52 166.545C484.147 166.544 483.788 166.405 483.513 166.155C483.237 165.904 483.064 165.56 483.028 165.19C482.993 164.819 483.096 164.448 483.318 164.149C483.541 163.851 483.866 163.645 484.231 163.573C487.647 162.901 488.888 161.297 489.54 156.706C489.568 156.511 489.634 156.323 489.734 156.154C489.834 155.984 489.967 155.836 490.124 155.718C490.282 155.599 490.461 155.513 490.652 155.464C490.843 155.415 491.041 155.404 491.236 155.432C491.431 155.459 491.619 155.525 491.789 155.625C491.958 155.726 492.107 155.858 492.225 156.016C492.343 156.173 492.429 156.353 492.478 156.543C492.527 156.734 492.538 156.933 492.511 157.128C491.819 161.99 490.246 165.447 484.812 166.517C484.715 166.536 484.618 166.545 484.52 166.545Z" fill="#03072E"/>
<path d="M497.531 166.545C497.433 166.545 497.335 166.536 497.239 166.517C491.806 165.447 490.232 161.99 489.54 157.128C489.484 156.734 489.587 156.334 489.826 156.016C490.065 155.698 490.421 155.488 490.815 155.432C491.208 155.376 491.609 155.479 491.927 155.718C492.245 155.957 492.455 156.312 492.511 156.706C493.163 161.297 494.404 162.901 497.819 163.573C498.185 163.645 498.51 163.851 498.733 164.149C498.955 164.448 499.058 164.819 499.022 165.19C498.986 165.56 498.814 165.904 498.538 166.155C498.263 166.405 497.904 166.544 497.531 166.545V166.545ZM491.023 174.674C490.663 174.673 490.314 174.543 490.041 174.306C489.769 174.069 489.591 173.742 489.54 173.385C488.888 168.794 487.647 167.189 484.231 166.517C483.841 166.44 483.497 166.211 483.276 165.88C483.054 165.55 482.973 165.145 483.05 164.755C483.127 164.365 483.356 164.021 483.686 163.799C484.016 163.578 484.421 163.496 484.811 163.573C490.246 164.643 491.819 168.101 492.511 172.963C492.566 173.357 492.464 173.757 492.225 174.075C491.986 174.393 491.63 174.603 491.236 174.66C491.166 174.669 491.095 174.674 491.023 174.674V174.674Z" fill="#03072E"/>
<path d="M491.028 174.674C490.956 174.674 490.885 174.669 490.815 174.659C490.421 174.603 490.065 174.393 489.826 174.075C489.587 173.757 489.484 173.357 489.54 172.963C490.233 168.101 491.806 164.643 497.239 163.573C497.433 163.535 497.632 163.535 497.825 163.574C498.018 163.613 498.201 163.689 498.365 163.799C498.529 163.909 498.669 164.05 498.778 164.214C498.887 164.378 498.963 164.561 499.001 164.755C499.039 164.948 499.039 165.147 499 165.34C498.961 165.533 498.885 165.717 498.775 165.88C498.665 166.044 498.525 166.184 498.361 166.293C498.197 166.403 498.013 166.478 497.819 166.516C494.404 167.188 493.164 168.794 492.511 173.385C492.46 173.742 492.282 174.069 492.01 174.306C491.737 174.543 491.389 174.673 491.028 174.674V174.674Z" fill="#03072E"/>
<path d="M429.5 43L424 35.5L419 43L424 49.5L429.5 43Z" fill="#45D62F"/>
<path d="M433.5 17.5L430.5 13.5L427 18L430.5 21L433.5 17.5Z" fill="#FFEC00"/>
<path d="M414.084 44.1533C413.711 44.1527 413.352 44.0136 413.077 43.7631C412.801 43.5125 412.629 43.1685 412.593 42.7978C412.557 42.4271 412.66 42.0564 412.883 41.7577C413.105 41.4589 413.431 41.2536 413.796 41.1816C419.232 40.1116 421.304 37.4648 422.324 30.291C422.38 29.8971 422.59 29.5415 422.908 29.3025C423.226 29.0635 423.626 28.9607 424.02 29.0166C424.414 29.0726 424.77 29.2827 425.009 29.6008C425.248 29.919 425.35 30.319 425.294 30.7129C424.094 39.1592 421.134 42.7949 414.376 44.125C414.279 44.144 414.182 44.1535 414.084 44.1533Z" fill="#03072E"/>
<path d="M433.534 44.1533C433.436 44.1535 433.338 44.144 433.242 44.125C426.484 42.795 423.524 39.1602 422.324 30.7129C422.268 30.319 422.371 29.919 422.61 29.6008C422.849 29.2827 423.204 29.0726 423.598 29.0166C423.992 28.9607 424.392 29.0635 424.71 29.3025C425.028 29.5415 425.238 29.8971 425.294 30.291C426.314 37.4648 428.386 40.111 433.822 41.1816C434.187 41.2536 434.513 41.459 434.735 41.7578C434.958 42.0565 435.061 42.4274 435.025 42.7981C434.989 43.1688 434.816 43.5128 434.541 43.7633C434.265 44.0138 433.906 44.1529 433.534 44.1533V44.1533ZM423.807 56.3047C423.446 56.3043 423.097 56.1737 422.825 55.9369C422.552 55.7001 422.374 55.373 422.324 55.0156C421.304 47.8418 419.232 45.1956 413.796 44.125C413.603 44.0869 413.419 44.0112 413.255 43.902C413.091 43.7929 412.95 43.6525 412.84 43.4889C412.73 43.3253 412.654 43.1417 412.615 42.9486C412.577 42.7555 412.576 42.5566 412.614 42.3633C412.652 42.1701 412.728 41.9862 412.837 41.8222C412.946 41.6582 413.087 41.5173 413.25 41.4076C413.414 41.2979 413.598 41.2214 413.791 41.1827C413.984 41.1439 414.183 41.1435 414.376 41.1816C421.135 42.5116 424.095 46.1475 425.295 54.5938C425.351 54.9878 425.248 55.3878 425.009 55.7059C424.77 56.0239 424.414 56.2341 424.02 56.29C423.949 56.2998 423.878 56.3047 423.807 56.3047V56.3047Z" fill="#03072E"/>
<path d="M423.811 56.3047C423.739 56.3046 423.668 56.2997 423.598 56.29C423.204 56.2339 422.848 56.0238 422.609 55.7057C422.37 55.3876 422.267 54.9877 422.323 54.5938C423.523 46.1465 426.482 42.5117 433.241 41.1816C433.632 41.1047 434.036 41.186 434.367 41.4076C434.697 41.6292 434.926 41.973 435.003 42.3633C435.08 42.7536 434.999 43.1585 434.777 43.4889C434.555 43.8193 434.212 44.0481 433.821 44.125C428.385 45.195 426.313 47.8418 425.294 55.0156C425.243 55.3729 425.065 55.7 424.793 55.9368C424.52 56.1735 424.172 56.3042 423.811 56.3047V56.3047ZM423.52 19.5449C423.147 19.5444 422.788 19.4054 422.513 19.1549C422.237 18.9044 422.064 18.5603 422.028 18.1896C421.993 17.8189 422.096 17.4481 422.318 17.1493C422.541 16.8506 422.866 16.6452 423.231 16.5732C426.647 15.9014 427.888 14.2969 428.54 9.7061C428.568 9.51104 428.634 9.32334 428.734 9.15373C428.834 8.98412 428.967 8.83591 429.124 8.71757C429.282 8.59922 429.461 8.51306 429.652 8.464C429.843 8.41494 430.041 8.40395 430.236 8.43165C430.431 8.45934 430.619 8.52519 430.789 8.62542C430.958 8.72565 431.107 8.85831 431.225 9.01582C431.343 9.17334 431.429 9.35261 431.478 9.54342C431.527 9.73423 431.538 9.93284 431.511 10.1279C430.819 14.9902 429.246 18.4473 423.812 19.5166C423.715 19.5356 423.618 19.5451 423.52 19.5449V19.5449Z" fill="#03072E"/>
<path d="M436.531 19.5449C436.433 19.5451 436.335 19.5356 436.239 19.5166C430.806 18.4473 429.232 14.9902 428.54 10.1279C428.484 9.73396 428.587 9.33394 428.826 9.01583C429.065 8.69772 429.421 8.48759 429.815 8.43165C430.208 8.37572 430.609 8.47857 430.927 8.71757C431.245 8.95658 431.455 9.31216 431.511 9.7061C432.163 14.2969 433.404 15.9014 436.819 16.5732C437.185 16.6452 437.51 16.8506 437.733 17.1494C437.955 17.4481 438.058 17.8189 438.022 18.1896C437.986 18.5603 437.814 18.9044 437.538 19.1549C437.263 19.4054 436.904 19.5444 436.531 19.5449V19.5449ZM430.023 27.6738C429.663 27.6733 429.314 27.5427 429.041 27.3059C428.769 27.0692 428.591 26.7421 428.54 26.3848C427.888 21.7939 426.647 20.1885 423.231 19.5166C422.841 19.4397 422.497 19.2109 422.276 18.8805C422.054 18.5501 421.973 18.1452 422.05 17.7549C422.127 17.3646 422.356 17.0208 422.686 16.7992C423.016 16.5776 423.421 16.4963 423.811 16.5732C429.246 17.6426 430.819 21.1006 431.511 25.9632C431.566 26.3571 431.464 26.7571 431.225 27.0751C430.986 27.3932 430.63 27.6034 430.236 27.6595C430.166 27.6691 430.095 27.6738 430.023 27.6738V27.6738Z" fill="#03072E"/>
<path d="M430.028 27.6739C429.956 27.6738 429.885 27.6689 429.815 27.6593C429.421 27.6032 429.065 27.393 428.826 27.0749C428.587 26.7568 428.484 26.3569 428.54 25.963C429.233 21.1007 430.806 17.643 436.239 16.573C436.433 16.5349 436.632 16.5353 436.825 16.574C437.018 16.6128 437.201 16.6892 437.365 16.799C437.529 16.9087 437.669 17.0496 437.778 17.2136C437.887 17.3775 437.963 17.5614 438.001 17.7547C438.039 17.9479 438.039 18.1468 438 18.3399C437.961 18.5331 437.885 18.7167 437.775 18.8803C437.665 19.0439 437.525 19.1842 437.361 19.2934C437.197 19.4025 437.013 19.4783 436.819 19.5164C433.404 20.1883 432.164 21.7937 431.511 26.3846C431.46 26.742 431.282 27.0692 431.01 27.306C430.737 27.5428 430.389 27.6734 430.028 27.6739V27.6739Z" fill="#03072E"/>
</svg>
